<svg width="24" height="24" viewBox="0 0 24 24" fill="none" xmlns="http://www.w3.org/2000/svg">
<path fill-rule="evenodd" clip-rule="evenodd" d="M9.19195 17.95C9.19084 18.5285 8.72115 18.9967 8.14261 18.996C7.56408 18.9953 7.09558 18.5259 7.09595 17.9473C7.09631 17.3688 7.56541 16.9 8.14395 16.9C8.42216 16.9003 8.68887 17.011 8.88541 17.2079C9.08195 17.4049 9.19221 17.6718 9.19195 17.95V17.95Z" stroke="#161616" stroke-width="1.5" stroke-linecap="round" stroke-linejoin="round"/>
<path fill-rule="evenodd" clip-rule="evenodd" d="M14.7811 17.95C14.78 18.5285 14.3103 18.9967 13.7317 18.996C13.1532 18.9953 12.6847 18.5259 12.6851 17.9473C12.6854 17.3688 13.1545 16.9 13.7331 16.9C14.0113 16.9003 14.278 17.011 14.4745 17.2079C14.6711 17.4049 14.7813 17.6718 14.7811 17.95V17.95Z" stroke="#161616" stroke-width="1.5" stroke-linecap="round" stroke-linejoin="round"/>
<path fill-rule="evenodd" clip-rule="evenodd" d="M18.6 7.79999H8.49297L7.79297 13.4C7.79297 14.1732 8.41977 14.8 9.19297 14.8H15.393C15.8846 14.7998 16.3401 14.5416 16.593 14.12L19.8 9.91999C20.0593 9.48758 20.066 8.94913 19.8177 8.51035C19.5693 8.07157 19.1042 7.80023 18.6 7.79999Z" stroke="#161616" stroke-width="1.5" stroke-linecap="round" stroke-linejoin="round"/>
<path d="M8.493 7.8L7.824 5.118C7.80611 5.04823 7.74303 4.99958 7.671 5H5" stroke="#161616" stroke-width="1.5" stroke-linecap="round" stroke-linejoin="round"/>
</svg>
