<svg width="97" height="96" viewBox="0 0 97 96" fill="none" xmlns="http://www.w3.org/2000/svg">
<path d="M55.6439 58.1866L40.1802 42.7229C39.2232 41.7659 39.2232 40.2117 40.1802 39.2547L55.6439 23.791C56.6009 22.834 58.1551 22.834 59.1121 23.791L74.5758 39.2547C75.5328 40.2117 75.5328 41.7659 74.5758 42.7229L59.1121 58.1866C58.1551 59.1436 56.6009 59.1436 55.6439 58.1866Z" fill="#FBB516"/>
<path d="M57.3781 55.4379L42.9286 40.9885L57.3781 26.5391L71.8275 40.9885L57.3781 55.4379ZM45.0145 40.9885L57.3781 53.3521L69.7417 40.9885L57.3781 28.6249L45.0145 40.9885Z" fill="white"/>
<path d="M33.522 40.9888L47.4888 27.022C51.6359 22.8749 51.6359 16.1512 47.4888 12L18.5 40.9888L47.4888 69.9776C51.6359 65.8305 51.6359 59.1068 47.4888 54.9556L33.522 40.9888Z" fill="#4D4D4E"/>
<path d="M27.0077 76.9962H25.7981C25.7266 76.6483 25.6014 76.3427 25.4226 76.0793C25.247 75.816 25.0324 75.5949 24.7788 75.416C24.5284 75.234 24.2504 75.0974 23.9448 75.0064C23.6392 74.9153 23.3205 74.8698 22.9889 74.8698C22.3841 74.8698 21.8362 75.0226 21.3453 75.3282C20.8575 75.6339 20.469 76.0842 20.1796 76.6792C19.8935 77.2742 19.7504 78.0042 19.7504 78.8691C19.7504 79.734 19.8935 80.4639 20.1796 81.059C20.469 81.654 20.8575 82.1043 21.3453 82.4099C21.8362 82.7156 22.3841 82.8684 22.9889 82.8684C23.3205 82.8684 23.6392 82.8229 23.9448 82.7318C24.2504 82.6408 24.5284 82.5059 24.7788 82.327C25.0324 82.1449 25.247 81.9222 25.4226 81.6588C25.6014 81.3922 25.7266 81.0866 25.7981 80.7419H27.0077C26.9166 81.2524 26.7508 81.7092 26.5102 82.1124C26.2696 82.5156 25.9705 82.8586 25.6128 83.1415C25.2552 83.4211 24.8536 83.6341 24.4081 83.7804C23.9659 83.9267 23.4929 83.9999 22.9889 83.9999C22.137 83.9999 21.3794 83.7918 20.7161 83.3756C20.0528 82.9594 19.5309 82.3677 19.1505 81.6003C18.7701 80.833 18.5799 79.9226 18.5799 78.8691C18.5799 77.8156 18.7701 76.9052 19.1505 76.1379C19.5309 75.3705 20.0528 74.7787 20.7161 74.3626C21.3794 73.9464 22.137 73.7383 22.9889 73.7383C23.4929 73.7383 23.9659 73.8114 24.4081 73.9578C24.8536 74.1041 25.2552 74.3187 25.6128 74.6015C25.9705 74.8812 26.2696 75.2226 26.5102 75.6258C26.7508 76.0257 26.9166 76.4825 27.0077 76.9962Z" fill="#4D4D4E"/>
<path d="M28.9622 83.8633V73.8748H30.1718V78.3228H35.4977V73.8748H36.7072V83.8633H35.4977V79.3958H30.1718V83.8633H28.9622Z" fill="#4D4D4E"/>
<path d="M39.5384 83.8633H38.2704L41.938 73.8748H43.1866L46.8542 83.8633H45.5861L42.6013 75.4551H42.5233L39.5384 83.8633ZM40.0066 79.9616H45.1179V81.0346H40.0066V79.9616Z" fill="#4D4D4E"/>
<path d="M56.3306 73.8748V83.8633H55.1601L49.7171 76.0208H49.6196V83.8633H48.41V73.8748H49.5806L55.043 81.7369H55.1406V73.8748H56.3306Z" fill="#4D4D4E"/>
<path d="M66.7885 76.9962H65.579C65.5075 76.6483 65.3823 76.3427 65.2034 76.0793C65.0279 75.816 64.8133 75.5949 64.5597 75.416C64.3093 75.234 64.0313 75.0974 63.7257 75.0064C63.42 74.9153 63.1014 74.8698 62.7697 74.8698C62.1649 74.8698 61.6171 75.0226 61.1261 75.3282C60.6384 75.6339 60.2498 76.0842 59.9605 76.6792C59.6743 77.2742 59.5313 78.0042 59.5313 78.8691C59.5313 79.734 59.6743 80.4639 59.9605 81.059C60.2498 81.654 60.6384 82.1043 61.1261 82.4099C61.6171 82.7156 62.1649 82.8684 62.7697 82.8684C63.1014 82.8684 63.42 82.8229 63.7257 82.7318C64.0313 82.6408 64.3093 82.5059 64.5597 82.327C64.8133 82.1449 65.0279 81.9222 65.2034 81.6588C65.3823 81.3922 65.5075 81.0866 65.579 80.7419H66.7885C66.6975 81.2524 66.5317 81.7092 66.2911 82.1124C66.0504 82.5156 65.7513 82.8586 65.3937 83.1415C65.036 83.4211 64.6344 83.6341 64.189 83.7804C63.7468 83.9267 63.2737 83.9999 62.7697 83.9999C61.9178 83.9999 61.1602 83.7918 60.4969 83.3756C59.8336 82.9594 59.3118 82.3677 58.9314 81.6003C58.5509 80.833 58.3607 79.9226 58.3607 78.8691C58.3607 77.8156 58.5509 76.9052 58.9314 76.1379C59.3118 75.3705 59.8336 74.7787 60.4969 74.3626C61.1602 73.9464 61.9178 73.7383 62.7697 73.7383C63.2737 73.7383 63.7468 73.8114 64.189 73.9578C64.6344 74.1041 65.036 74.3187 65.3937 74.6015C65.7513 74.8812 66.0504 75.2226 66.2911 75.6258C66.5317 76.0257 66.6975 76.4825 66.7885 76.9962Z" fill="#4D4D4E"/>
<path d="M68.7431 83.8633V73.8748H74.7713V74.9478H69.9526V78.3228H74.4591V79.3958H69.9526V82.7904H74.8493V83.8633H68.7431Z" fill="#4D4D4E"/>
<path d="M77.6342 83.9414C77.3936 83.9414 77.1871 83.8552 77.0148 83.6829C76.8425 83.5106 76.7563 83.3041 76.7563 83.0635C76.7563 82.8229 76.8425 82.6164 77.0148 82.4441C77.1871 82.2717 77.3936 82.1856 77.6342 82.1856C77.8748 82.1856 78.0813 82.2717 78.2536 82.4441C78.4259 82.6164 78.5121 82.8229 78.5121 83.0635C78.5121 83.2228 78.4714 83.3691 78.3902 83.5024C78.3121 83.6357 78.2065 83.743 78.0731 83.8243C77.9431 83.9024 77.7968 83.9414 77.6342 83.9414Z" fill="#4D4D4E"/>
</svg>
