<svg width="240" height="72" viewBox="0 0 240 72" fill="none" xmlns="http://www.w3.org/2000/svg">
<path d="M73.5409 25.1641C73.5198 24.2003 73.2817 23.3113 72.5195 22.6585C70.3883 20.8384 67.3777 21.3625 65.9242 23.7395C64.4593 26.1337 63.2382 28.6316 62.3338 31.2928C62.1534 31.8246 62.0708 32.4659 61.3738 32.9267C61.1358 31.2928 61.0628 29.7913 61.2106 28.2841C61.2913 27.4604 61.3009 26.6464 61.1684 25.8265C60.8708 23.9872 60.2353 23.3977 58.3921 23.1846C57.3668 23.0656 56.5873 23.4534 55.9153 24.183C54.5175 25.6998 53.6362 27.518 52.8049 29.3747C52.5745 29.8912 52.586 30.5843 51.8795 30.8857C51.6491 30.1849 51.8929 29.5705 52.0695 28.9542C52.2673 28.2707 52.5169 27.5987 52.682 26.9075C53.0545 25.3523 52.5745 24.6188 50.9367 24.1523C49.2817 23.6819 48.2622 24.1254 47.7706 25.5308C47.5729 26.0992 47.3905 26.6732 47.1639 27.2281C45.3303 31.7344 44.8446 36.4441 45.0404 41.2537C45.0596 41.7376 45.1537 42.2444 45.3303 42.6937C45.9774 44.3449 47.5537 45.0131 49.203 44.391C50.6026 43.863 51.4167 42.8492 51.7259 41.3958C52.2039 39.1456 52.7511 36.9107 53.1812 34.6508C53.6881 31.9859 54.6961 29.5091 55.85 27.0803C56.0266 26.7097 56.1534 26.2412 56.8023 26.1107C57.0539 26.6732 56.8561 27.1532 56.7255 27.6102C56.0209 30.0947 55.5831 32.6272 55.322 35.1942C55.1146 37.2313 55.2471 39.2493 55.7233 41.2345C55.9882 42.3385 56.5738 42.9856 57.2631 42.8972C58.7415 42.7091 60.0817 41.9853 60.7556 40.7315C61.2548 39.8022 61.6676 38.7577 62.0958 37.7593C63.2593 35.0329 63.5492 32.0204 64.9431 29.3728C65.3732 28.5548 65.6516 27.6544 65.9569 26.775C66.2852 25.8304 66.8439 25.0163 67.347 24.1715C67.6254 23.703 68.0516 23.4592 68.5969 23.6588C69.1191 23.8508 69.123 24.3424 69.0404 24.7724C68.8868 25.5769 68.7274 26.3891 68.4567 27.159C67.585 29.6492 66.9457 32.1971 66.5482 34.8006C66.0433 38.1068 65.6036 41.4246 66.0452 44.7788C66.337 46.9926 67.3316 48.8281 69.1038 50.222C69.5492 50.5715 70.0215 50.8173 70.5937 50.8365C71.0718 50.8518 71.546 50.727 71.5786 50.1952C71.6362 49.2908 72.2065 49.0508 72.9361 48.8128C73.441 48.6476 73.706 48.2214 73.3201 47.6435C71.9396 45.566 71.8897 43.2064 71.9031 40.8352C71.9262 37.0931 72.5886 33.4201 73.1319 29.7376C73.3547 28.2169 73.5735 26.704 73.5409 25.1641ZM51.674 31.9513C51.6452 31.9552 51.5646 31.7824 51.5684 31.6921C51.5722 31.5212 51.5031 31.2774 51.7988 31.2736C51.8353 31.2736 51.8718 31.4348 51.9102 31.527C51.8487 31.6787 51.937 31.9225 51.674 31.9513ZM57.0116 25.8208C56.9578 25.7824 56.9041 25.744 56.8484 25.7056C56.8849 25.6672 56.9214 25.6288 56.9559 25.5904C56.9924 25.6288 57.0289 25.6672 57.0635 25.7056C57.0481 25.744 57.0289 25.7824 57.0116 25.8208Z" fill="url(#paint0_linear_18_1278)"/>
<path d="M194.123 29.1251C193.631 28.7219 193.199 29.152 192.844 29.4956C192.491 29.8374 192.147 30.1945 191.838 30.5766C190.803 31.8611 189.949 33.2646 189.175 34.7219C188.261 36.4441 186.999 37.9129 185.667 39.3894C185.408 37.9072 185.339 36.4556 185.807 35.054C186.431 33.184 186.702 31.2083 187.483 29.39C187.798 28.6566 187.844 27.9059 187.831 27.1379C187.802 25.5577 187.176 24.807 185.636 24.5766C184.609 24.423 183.618 24.2195 182.645 23.8105C180.721 23.0022 178.943 23.3939 177.225 24.5536C175.343 25.8227 174.174 27.6332 173.005 29.4976C171.906 31.2505 171.15 33.0956 170.948 35.1577C170.862 36.0486 170.557 36.8358 170.107 37.6153C168.959 39.6102 167.655 41.5129 166.64 43.5865C166.354 44.1702 166.056 44.944 165.121 44.8211C165.148 44.1356 164.797 43.5558 164.599 42.9337C164.384 42.254 164.142 41.5878 164.103 40.862C163.865 36.304 163.967 31.7689 164.969 27.2876C165.255 26.007 165.421 24.6995 166.667 23.8854C166.968 23.6896 167.131 23.2825 167.367 22.9811C169.191 20.6348 170.468 17.9584 171.912 15.3856C172.755 13.886 173.139 12.2348 172.924 10.4742C172.82 9.62748 172.734 8.74813 171.814 8.46205C170.57 8.07421 169.211 7.59036 168.062 8.60412C166.834 9.68892 165.624 10.8467 164.845 12.3116C162.865 16.0307 160.692 19.6748 160.006 23.9372C159.901 24.5977 159.651 25.0316 158.82 24.9184C155.961 24.5286 153.833 25.7497 152.215 28.0326C151.867 28.5241 151.447 28.9696 151.13 29.4803C150.214 30.9664 148.855 31.9878 147.507 33.0246C146.925 33.472 146.294 33.7465 145.56 33.3798C145.522 32.7155 145.733 32.1529 145.915 31.5808C146.334 30.2636 146.478 28.8947 146.551 27.5276C146.664 25.4156 145.024 23.9833 143.018 24.4326C142.55 24.5382 142.258 24.5228 141.833 24.2502C140.34 23.2902 139.478 23.3651 138.126 24.4844C137.621 24.9011 137.126 25.36 136.742 25.8841C136.118 26.7366 135.34 27.4086 134.543 28.0787C132.992 29.3843 131.475 30.736 129.929 32.0473C129.614 32.3142 129.407 32.7808 128.749 32.7212C128.843 32.1241 128.912 31.5328 129.031 30.951C129.315 29.5552 129.618 28.1632 129.926 26.7731C130.058 26.1721 130.081 25.5788 129.901 24.9856C129.484 23.6281 127.111 22.4512 126.189 23.2902C125.462 23.9507 124.951 23.9564 124.194 23.5456C123.54 23.1904 122.798 23.2633 122.098 23.4016C120.218 23.774 118.628 24.64 117.325 26.0934C114.951 28.7392 113.525 31.8265 112.818 35.2768C112.718 35.7625 112.651 36.2425 112.344 36.6592C111.632 37.6326 110.975 38.6483 110.222 39.5872C109.733 40.1958 109.286 40.8889 108.452 41.3363C108.41 40.6988 108.251 40.1785 108.366 39.7292C109.04 37.118 109.122 34.4128 109.679 31.7843C110.199 29.3209 110.72 26.8576 111.248 24.3961C111.34 23.968 111.469 23.5532 111.294 23.1097C110.455 20.967 107.463 20.0646 105.53 21.376C104.274 22.2284 103.36 23.3632 102.681 24.7168C102.391 25.2947 102.206 25.9705 101.617 26.4582C101.41 25.8899 101.59 25.4636 101.629 25.0355C101.744 23.7548 101.5 23.2998 100.513 22.9926C99.1959 22.5817 98.401 22.8044 97.8961 23.9123C96.8977 26.1068 95.9223 28.3225 95.6593 30.759C95.5748 31.5404 95.3137 32.224 94.945 32.9171C93.8334 35.0041 92.5124 36.9452 91.082 38.8172C90.8881 39.0707 90.7767 39.424 90.2756 39.2588C90.0874 37.6921 90.1892 36.1273 90.6769 34.5932C91.3086 32.6118 91.7022 30.5612 92.4702 28.6182C92.643 28.1785 92.6314 27.6467 92.6218 27.159C92.5892 25.6384 91.8846 24.8396 90.3966 24.5766C89.4884 24.4153 88.5706 24.3539 87.7028 23.9526C85.6292 22.9926 83.7207 23.3094 81.8506 24.638C79.1857 26.5312 77.7188 29.271 76.4113 32.1011C75.5742 33.9136 75.4378 35.9219 75.555 37.911C75.6817 40.0691 77.1505 41.1539 79.2433 40.6988C79.6177 40.6182 79.9902 40.4723 80.3665 40.4569C81.9543 40.3936 82.993 39.5219 83.8014 38.247C84.218 37.5884 84.6442 36.926 85.5082 36.1542C85.5082 37.4291 85.4026 38.3584 85.5274 39.2569C85.923 42.0966 88.1982 43.2467 90.7114 41.9372C92.0209 41.2556 92.9617 40.2169 93.651 38.9267C94.0215 38.2336 94.3095 37.4675 95.1294 37.024C95.2676 37.5059 95.3482 37.8764 95.4807 38.2278C96.1911 40.1152 97.1434 40.5126 99.0634 39.8675C100.139 39.5065 100.605 38.7404 100.899 37.7401C101.412 35.9948 101.429 34.1612 101.867 32.4064C102.516 29.8009 103.095 27.1705 104.578 24.8646C105.138 23.991 105.751 23.1788 106.757 22.6835C107.022 23.5974 106.605 24.2809 106.352 24.9913C104.883 29.1289 103.476 33.278 103.382 37.7382C103.349 39.3433 103.458 40.9292 104.169 42.3942C105.3 44.727 107.575 45.1283 109.405 43.3465C110.075 42.6956 110.687 41.9929 111.204 41.2115C111.67 40.5088 112.129 39.7984 112.728 38.8806C113.584 41.4649 115.42 41.6224 117.467 41.2902C118.968 41.0464 120.324 40.5241 121.299 39.2723C121.454 39.0726 121.602 38.798 121.971 38.9132C122.153 40.1996 121.875 41.3056 121.059 42.4057C117.778 46.8332 115.095 51.5948 113.35 56.8537C112.982 57.9654 112.72 59.0905 112.859 60.2425C113.124 62.4467 114.602 64.5376 117.225 63.8483C120.877 62.8883 123.747 60.9337 125.212 57.424C126.456 54.4403 127.147 51.2665 127.203 47.9968C127.23 46.4646 127.299 44.9401 127.458 43.4099C127.606 41.9968 128.017 40.599 127.871 39.1628C127.721 37.6806 128.173 36.5305 129.371 35.5763C130.394 34.7603 131.258 33.7465 132.21 32.8403C132.45 32.6118 132.64 32.2048 133.097 32.3699C133.117 32.4544 133.145 32.512 133.136 32.5619C133.08 32.8844 132.999 33.2051 132.959 33.5296C132.614 36.2464 133.076 38.7635 134.749 41.006C135.334 41.7913 136.073 42.2944 136.997 42.5689C139.251 43.239 141.463 42.423 142.703 40.4377C143.463 39.2224 143.995 37.9033 144.431 36.5382C144.556 36.1465 144.579 35.4803 145.07 35.4918C146.199 35.5168 147.108 34.72 148.142 34.72C148.4 34.9504 148.367 35.1788 148.308 35.3843C147.853 36.9376 147.926 38.5331 147.922 40.1228C147.918 41.8816 148.72 43.1929 150.279 43.9532C151.635 44.6137 153.83 44.0454 154.974 42.855C156.114 41.6665 157.159 40.4166 157.689 38.8096C157.79 38.5004 157.827 38.0224 158.428 38.0166C158.482 38.6713 158.583 39.3145 158.576 39.9558C158.553 41.6281 158.912 43.2198 159.465 44.7808C159.968 46.1996 160.709 47.4803 161.905 48.4211C162.633 48.9952 163.431 49.5385 164.42 48.8992C165.405 48.6592 166.315 48.0659 166.891 47.39C167.934 46.1689 168.88 44.8172 169.43 43.2313C169.854 42.0044 170.505 40.8544 171.085 39.6045C171.868 40.1689 172.5 40.9715 173.433 40.8371C175.623 40.5222 177.97 40.4896 179.191 38.0569C179.498 37.4444 179.897 36.7667 180.75 36.3616C180.633 37.6057 180.64 38.6982 180.9 39.7676C181.472 42.1235 183.515 43.0989 185.715 42.064C186.569 41.6627 187.32 41.1212 187.911 40.3744C188.937 39.0822 189.697 37.6211 190.517 36.2041C191.64 34.2668 192.519 32.1932 193.785 30.3289C193.994 30.0083 194.756 29.6454 194.123 29.1251ZM170.24 9.5622C170.9 10.935 170.666 12.1196 170.194 13.191C169.468 14.8403 168.569 16.4147 167.73 18.014C167.669 18.1312 167.523 18.2022 167.406 18.2905C167.431 15.1513 168.134 12.2368 170.24 9.5622ZM167.369 18.3385C167.341 18.4768 167.312 18.615 167.283 18.7532C167.233 18.7014 167.143 18.6515 167.141 18.5996C167.139 18.448 167.191 18.3232 167.369 18.3385ZM86.8522 26.5561C86.8196 26.6598 86.7812 26.7654 86.7294 26.8595C84.8478 30.2483 83.1294 33.735 80.7946 36.8531C80.7754 36.878 80.6967 36.8569 80.545 36.8569C80.282 35.5513 80.6372 34.3187 81.0999 33.1148C81.7623 31.3849 82.4478 29.6646 83.1524 27.9539C83.594 26.8787 84.2122 25.9225 85.226 25.2812C85.6292 25.0259 86.0401 24.9491 86.4433 25.2544C86.883 25.5846 87.0135 26.03 86.8522 26.5561ZM121.239 54.7513C120.838 56.6963 120.097 58.5414 118.473 59.8547C117.841 60.3654 117.154 60.951 116.278 60.6054C115.214 60.1868 115.641 59.152 115.696 58.4377C115.817 56.8518 116.459 55.3676 116.992 53.8777C118.085 50.8288 119.761 48.0716 121.435 45.2608C121.608 48.4595 121.885 51.6313 121.239 54.7513ZM123.964 27.9616C122.718 30.7072 121.297 33.3568 119.446 35.7529C119.212 36.0544 118.951 36.3424 118.67 36.5996C118.394 36.8531 118.087 37.1968 117.674 37.0105C117.232 36.8128 117.447 36.35 117.407 35.9449C117.553 34.3974 118.156 32.9152 118.609 31.4022C119.095 29.7779 119.849 28.2476 120.688 26.7673C121.022 26.176 121.46 25.7036 122.071 25.408C123.259 24.83 124.325 25.5308 124.252 26.8614C124.231 27.232 124.119 27.6198 123.964 27.9616ZM140.939 39.6582C140.061 40.7161 139.487 40.6067 138.963 39.3433C138.087 37.2352 138.23 35.1232 138.982 32.6425C140.094 34.1804 141.313 35.0233 142.962 35.344C142.475 36.9452 141.96 38.4256 140.939 39.6582ZM145.22 27.4048C144.878 29.2134 144.669 31.0566 143.88 32.7961C142.333 32.4064 141.95 31.214 141.82 29.9334C141.689 28.6336 142.141 27.47 143.003 26.4793C143.381 26.0454 143.865 25.7017 144.433 25.9379C145.028 26.1875 145.347 26.7328 145.22 27.4048ZM159.098 27.6793C158.718 29.127 158.812 30.615 158.726 32.0857C158.699 32.535 158.587 32.9459 158.399 33.3452C157.243 35.7817 155.736 37.9897 154.006 40.0518C153.956 40.1132 153.816 40.0979 153.574 40.1497C153.463 38.9516 153.374 37.7651 153.664 36.6054C154.141 34.695 154.701 32.8076 155.611 31.0432C156.283 29.7414 156.6 28.2611 157.606 27.1244C157.865 26.8326 158.05 26.4582 158.52 26.6483C158.971 26.8288 159.232 27.1667 159.098 27.6793ZM182.109 26.6368C182.092 26.6886 182.063 26.7366 182.036 26.7846C180.168 30.1811 178.434 33.6582 176.132 36.7974C176.082 36.8665 175.946 36.8723 175.704 36.9625C175.564 35.7395 175.817 34.672 176.194 33.6486C176.927 31.6556 177.693 29.6723 178.521 27.7177C178.924 26.7635 179.513 25.8956 180.431 25.3196C180.878 25.0393 181.341 24.9088 181.787 25.2985C182.201 25.6576 182.288 26.1222 182.109 26.6368Z" fill="url(#paint1_linear_18_1278)"/>
<defs>
<linearGradient id="paint0_linear_18_1278" x1="59.2721" y1="50.839" x2="59.2721" y2="21.5676" gradientUnits="userSpaceOnUse">
<stop stop-color="#F05225"/>
<stop offset="1" stop-color="#F58B20"/>
</linearGradient>
<linearGradient id="paint1_linear_18_1278" x1="134.944" y1="63.9846" x2="134.944" y2="7.99927" gradientUnits="userSpaceOnUse">
<stop stop-color="#F05225"/>
<stop offset="1" stop-color="#F58B20"/>
</linearGradient>
</defs>
</svg>
