<svg width="180" height="180" viewBox="0 0 180 180" fill="none" xmlns="http://www.w3.org/2000/svg">
<path d="M66.1287 83.5191C66.1164 82.9345 65.9752 82.3944 65.5149 81.9984C64.2213 80.8951 62.3952 81.2128 61.5129 82.6552C60.6186 84.0974 59.8878 85.6348 59.3339 87.2388C59.2249 87.5626 59.1804 87.9508 58.7508 88.2301C58.6029 87.2985 58.57 86.3523 58.6525 85.4127C58.7083 84.9165 58.6996 84.4152 58.6265 83.9212C58.4469 82.8056 58.0602 82.4465 56.9385 82.3176C56.3155 82.2455 55.8429 82.4803 55.4347 82.9238C54.5861 83.8445 54.0536 84.9478 53.5472 86.0741C53.4061 86.381 53.4137 86.8076 52.9856 86.9948C52.8444 86.5698 52.9933 86.1969 53.1007 85.824C53.2204 85.4081 53.3723 85.0015 53.472 84.5826C53.6991 83.6388 53.4076 83.1923 52.4132 82.9099C51.4189 82.6276 50.7897 82.8946 50.492 83.7463C50.3723 84.09 50.2618 84.4399 50.1253 84.7759C49.0127 87.5104 48.7166 90.3692 48.8363 93.2878C48.8462 93.5865 48.9053 93.8815 49.0112 94.161C49.404 95.163 50.3616 95.5697 51.3605 95.1922C52.2107 94.8715 52.7048 94.2561 52.8951 93.3738C53.1851 92.0081 53.5089 90.6516 53.7774 89.2812C54.0843 87.6639 54.6981 86.16 55.3978 84.6869C55.5037 84.4613 55.5805 84.1775 55.9748 84.0977C56.1283 84.4399 56.007 84.7299 55.9288 85.0092C55.511 86.5159 55.226 88.0562 55.0771 89.6127C54.9498 90.8392 55.0323 92.0783 55.3211 93.2771C55.4746 93.9477 55.8367 94.3405 56.2541 94.2868C57.1518 94.1733 57.9651 93.7344 58.3748 92.9717C58.6817 92.4086 58.9288 91.7748 59.1881 91.1687C59.894 89.5145 60.0689 87.6853 60.9144 86.0787C61.1582 85.5695 61.3634 85.0427 61.5282 84.5028C61.7277 83.9304 62.0668 83.4363 62.3722 82.9238C62.541 82.6399 62.8003 82.491 63.1303 82.6169C63.4602 82.7427 63.4494 83.0312 63.4003 83.292C63.3181 83.783 63.1996 84.2672 63.0459 84.7406C62.518 86.2438 62.1301 87.7926 61.8873 89.3672C61.5804 91.3743 61.3149 93.3876 61.5804 95.4224C61.6521 96.0694 61.8533 96.6953 62.1721 97.2629C62.4908 97.8305 62.9205 98.3281 63.4356 98.7262C63.6882 98.9457 64.0056 99.0766 64.3394 99.099C64.6295 99.099 64.918 99.0315 64.9379 98.7093C64.9732 98.1599 65.3185 98.0141 65.7619 97.8699C66.0688 97.7702 66.2223 97.5108 65.9952 97.161C65.1573 95.8996 65.1267 94.4679 65.1359 93.0285C65.1497 90.759 65.5517 88.5293 65.8816 86.2935C66.0413 85.3773 66.1239 84.4492 66.1287 83.5191ZM52.8582 87.6378C52.8414 87.6378 52.7922 87.535 52.7938 87.4843C52.7938 87.38 52.7539 87.2327 52.9334 87.2311C52.9549 87.2311 52.9779 87.3293 53.0009 87.3846C52.9641 87.472 53.0194 87.6194 52.8582 87.6378ZM56.0976 83.9181L55.9994 83.8475C56.0209 83.8245 56.0439 83.8015 56.0654 83.7769C56.0868 83.8015 56.1083 83.8245 56.1313 83.8475L56.0976 83.9181Z" fill="#F15E24"/>
<path d="M139.302 85.9221C139.004 85.6781 138.742 85.939 138.525 86.1476C138.307 86.3537 138.102 86.573 137.912 86.8044C137.294 87.5897 136.753 88.4318 136.296 89.3195C135.742 90.3645 134.978 91.256 134.167 92.1522C134.014 91.253 133.968 90.3722 134.252 89.522C134.631 88.3865 134.795 87.188 135.269 86.0847C135.438 85.6497 135.51 85.1832 135.481 84.7175C135.464 83.7584 135.085 83.3027 134.149 83.163C133.527 83.0877 132.918 82.933 132.335 82.7027C131.167 82.2116 130.089 82.4495 129.045 83.1538C127.903 83.9211 127.193 85.0229 126.484 86.1538C125.817 87.2172 125.358 88.3374 125.236 89.588C125.176 90.1163 125.001 90.6251 124.725 91.0796C124.029 92.2903 123.237 93.4443 122.62 94.7041C122.447 95.0586 122.267 95.5281 121.699 95.4529C121.715 95.0371 121.501 94.6857 121.382 94.3067C121.226 93.9027 121.123 93.4803 121.075 93.0499C120.931 90.2878 120.992 87.5256 121.601 84.8126C121.775 84.0346 121.874 83.2413 122.631 82.7487C122.815 82.629 122.913 82.3835 123.056 82.1994C124.162 80.7753 124.937 79.1503 125.818 77.5958C126.341 76.6954 126.556 75.6494 126.432 74.6158C126.369 74.1017 126.317 73.5693 125.76 73.3959C125.005 73.1595 124.179 72.8665 123.483 73.4818C122.738 74.1401 122.003 74.8429 121.531 75.7314C120.329 77.9887 119.009 80.1999 118.595 82.7901C118.529 83.1922 118.379 83.4546 117.874 83.3855C116.14 83.1492 114.848 83.8888 113.866 85.2745C113.654 85.5737 113.405 85.8438 113.207 86.1538C112.652 87.0545 111.826 87.676 111.008 88.3021C110.656 88.5737 110.273 88.741 109.827 88.5185C109.804 88.1149 109.933 87.7727 110.043 87.4259C110.276 86.6272 110.405 85.8021 110.428 84.9707C110.497 83.6894 109.508 82.8224 108.28 83.0924C108.16 83.1311 108.032 83.1411 107.907 83.1217C107.782 83.1022 107.663 83.0539 107.56 82.9804C106.654 82.3988 106.13 82.4433 105.309 83.1231C104.996 83.371 104.714 83.6559 104.47 83.9717C104.081 84.4678 103.633 84.915 103.136 85.3037C102.194 86.097 101.275 86.9164 100.336 87.7129C100.146 87.8755 100.02 88.1579 99.6193 88.1226C99.6761 87.7589 99.7191 87.4013 99.7912 87.0484C99.9651 86.2014 100.146 85.3558 100.334 84.5119C100.425 84.1551 100.419 83.781 100.319 83.427C100.066 82.6029 98.6311 81.8925 98.0664 82.3988C97.6245 82.7993 97.3145 82.8024 96.8557 82.5523C96.4582 82.3359 96.0086 82.3804 95.5836 82.4633C94.4625 82.6693 93.4426 83.2446 92.6864 84.0975C91.247 85.7026 90.3846 87.5763 89.9519 89.6709C89.8921 89.9655 89.8506 90.2555 89.6649 90.5087C89.2322 91.0995 88.8348 91.7164 88.3775 92.2857C88.0798 92.6555 87.8082 93.076 87.3033 93.3476C87.2788 92.9609 87.1821 92.6448 87.2527 92.3716C87.6624 90.7865 87.713 89.1492 88.0491 87.5517C88.3652 86.0561 88.6823 84.5615 89.0005 83.0679C89.0557 82.807 89.134 82.5569 89.0281 82.2868C88.5187 80.9856 86.7033 80.4377 85.531 81.2341C84.7884 81.748 84.1928 82.4467 83.8031 83.2612C83.6266 83.6126 83.5146 84.0285 83.1571 84.3185C83.0312 83.9732 83.1402 83.7155 83.1648 83.4561C83.2338 82.6781 83.0865 82.4019 82.4865 82.2147C81.687 81.9661 81.2052 82.1011 80.8983 82.7733C80.2921 84.1052 79.7014 85.4494 79.5418 86.9272C79.4836 87.3881 79.3361 87.8332 79.1075 88.2377C78.4271 89.4869 77.646 90.6785 76.772 91.8008C76.6554 91.9542 76.5878 92.1691 76.2825 92.0693C76.1586 91.1191 76.2418 90.1532 76.5265 89.2382C76.9085 88.0351 77.1479 86.7829 77.6144 85.6121C77.7018 85.3251 77.733 85.024 77.7065 84.7252C77.6865 83.8045 77.2584 83.318 76.3561 83.1584C75.8052 83.0602 75.2482 83.0234 74.7219 82.7794C73.4636 82.1963 72.305 82.3881 71.1695 83.1953C69.5598 84.3446 68.6621 86.0065 67.8718 87.7251C67.3639 88.8254 67.281 90.0438 67.3516 91.2545C67.4283 92.565 68.3199 93.2233 69.5889 92.9425C69.8111 92.8714 70.0391 92.8201 70.2703 92.789C71.2339 92.7507 71.8646 92.2228 72.3557 91.4479C72.6331 90.9737 72.9825 90.5456 73.3914 90.1788C73.3914 90.9461 73.327 91.5169 73.4022 92.0601C73.6431 93.7849 75.0242 94.4816 76.5479 93.6867C77.3175 93.2768 77.941 92.6382 78.3326 91.8591C78.5566 91.4386 78.7316 90.9737 79.2287 90.7051C79.3131 90.9982 79.3622 91.2238 79.442 91.4371C79.8732 92.5819 80.4517 92.8182 81.6164 92.4315C82.2686 92.212 82.5525 91.7471 82.7305 91.141C83.0374 90.0806 83.0512 88.9681 83.3167 87.9031C83.711 86.3226 84.0624 84.7267 84.9617 83.3257C85.3023 82.7963 85.6737 82.3022 86.2844 82.0029C86.4379 82.5569 86.1923 82.9712 86.0389 83.4024C85.1473 85.9129 84.2942 88.431 84.2374 91.1379C84.2174 92.1123 84.2834 93.0744 84.7146 93.9629C85.4005 95.3793 86.7816 95.6217 87.8926 94.5414C88.3016 94.1496 88.6678 93.7154 88.9852 93.2463C89.269 92.8182 89.5468 92.387 89.9059 91.8299C90.4245 93.3982 91.5386 93.4949 92.7815 93.2923C93.6915 93.1389 94.514 92.832 95.1063 92.0647C95.2015 91.9435 95.2905 91.7778 95.5145 91.8468C95.5748 92.2194 95.5566 92.6004 95.4612 92.9656C95.3658 93.3308 95.1953 93.672 94.9605 93.9675C92.9657 96.6529 91.3422 99.5424 90.2833 102.734C90.0593 103.409 89.9013 104.092 89.9857 104.79C90.1391 106.129 91.0429 107.399 92.6342 106.979C94.8501 106.397 96.5933 105.209 97.4802 103.081C98.2431 101.268 98.6535 99.3267 98.6894 97.3603C98.7063 96.4304 98.7477 95.5051 98.8429 94.5767C98.9334 93.7189 99.182 92.8719 99.093 92.0003C99.0024 91.1011 99.2771 90.4028 100.003 89.8228C100.624 89.3272 101.149 88.7118 101.728 88.1625C101.881 88.0244 101.989 87.7758 102.266 87.877C102.279 87.9147 102.287 87.9539 102.289 87.9937C102.256 88.1901 102.207 88.3834 102.182 88.5814C101.972 90.2295 102.253 91.7563 103.267 93.1174C103.603 93.5767 104.083 93.9104 104.631 94.0657C105.269 94.2747 105.96 94.2607 106.589 94.026C107.218 93.7912 107.749 93.3497 108.094 92.7737C108.544 92.034 108.899 91.2405 109.15 90.4121C109.227 90.1742 109.241 89.7706 109.538 89.7768C110.224 89.7921 110.766 89.3164 111.403 89.3164C111.461 89.3633 111.502 89.428 111.52 89.5006C111.538 89.5732 111.532 89.6498 111.503 89.7185C111.226 90.6622 111.271 91.6305 111.269 92.5941C111.269 93.6683 111.754 94.457 112.699 94.9189C113.522 95.3194 114.848 94.9742 115.548 94.2514C116.247 93.5287 116.873 92.7721 117.196 91.7962C117.257 91.609 117.278 91.319 117.644 91.3159C117.676 91.7133 117.739 92.1031 117.733 92.4913C117.736 93.4917 117.919 94.4834 118.273 95.4192C118.58 96.2816 119.028 97.058 119.752 97.6289C120.194 97.9772 120.673 98.3071 121.287 97.9189C121.869 97.7716 122.392 97.4504 122.787 96.9982C123.42 96.257 123.993 95.4376 124.322 94.4739C124.581 93.7297 124.976 93.0315 125.327 92.2719C125.803 92.6156 126.186 93.1021 126.753 93.0207C128.081 92.8289 129.505 92.8105 130.247 91.3328C130.434 90.9614 130.675 90.5502 131.193 90.3046C131.106 90.9938 131.137 91.6928 131.284 92.3716C131.631 93.8003 132.871 94.3926 134.2 93.765C134.718 93.5326 135.174 93.1814 135.531 92.7399C136.155 91.9573 136.616 91.0688 137.114 90.2095C137.795 89.0341 138.329 87.7758 139.096 86.6448C139.227 86.4592 139.687 86.2382 139.302 85.9221ZM124.802 74.0511C125.203 74.8828 125.062 75.6025 124.775 76.2531C124.334 77.2536 123.788 78.2096 123.28 79.1794C123.243 79.25 123.154 79.2945 123.084 79.3467C123.105 77.4424 123.532 75.6807 124.802 74.0511ZM123.062 79.3758L123.008 79.629C122.979 79.5968 122.924 79.5661 122.922 79.5354C122.927 79.4434 122.961 79.3636 123.068 79.3758H123.062ZM74.2063 84.3645C74.1885 84.4284 74.1638 84.4902 74.1326 84.5487C72.9909 86.6049 71.9475 88.7195 70.5296 90.6131C70.5188 90.6269 70.4713 90.6131 70.3761 90.6131C70.2227 89.8197 70.4329 89.0786 70.7122 88.342C71.1142 87.2924 71.5296 86.2484 71.9582 85.2101C72.2268 84.5579 72.6012 83.9825 73.2165 83.5881C73.462 83.4346 73.7106 83.3871 73.9561 83.5727C74.0811 83.6571 74.1739 83.7812 74.2193 83.925C74.2647 84.0688 74.2601 84.2237 74.2063 84.3645ZM95.0756 101.473C94.8316 102.653 94.382 103.775 93.3969 104.571C93.0132 104.878 92.5959 105.235 92.0649 105.031C91.4204 104.778 91.6782 104.151 91.712 103.716C91.7856 102.754 92.1723 101.853 92.4977 100.954C93.1621 99.1035 94.1779 97.4248 95.1938 95.7261C95.2966 97.6565 95.4654 99.5808 95.0741 101.473H95.0756ZM96.7206 85.2162C95.9703 86.8827 95.1094 88.4909 93.9861 89.9517C93.8442 90.1363 93.6866 90.3083 93.515 90.4658C93.3478 90.6192 93.1606 90.8279 92.9104 90.7144C92.6603 90.6008 92.7723 90.3139 92.7478 90.0683C92.8368 89.1292 93.2081 88.2269 93.4767 87.3062C93.7915 86.3245 94.2151 85.381 94.7396 84.4934C94.9264 84.1384 95.2193 83.8503 95.5774 83.6694C96.2986 83.3195 96.9462 83.7431 96.9017 84.5518C96.8826 84.7825 96.8212 85.0077 96.7206 85.2162ZM107.022 92.3149C106.491 92.9563 106.143 92.8903 105.823 92.123C105.292 90.8433 105.378 89.5619 105.836 88.0566C106.509 88.9896 107.249 89.5006 108.249 89.6954C107.959 90.6683 107.648 91.566 107.028 92.3149H107.022ZM109.62 84.8786C109.413 85.9758 109.285 87.096 108.806 88.1502C107.867 87.9139 107.636 87.1911 107.556 86.4131C107.521 86.0329 107.568 85.6497 107.691 85.2885C107.815 84.9273 108.014 84.5963 108.274 84.317C108.504 84.0546 108.799 83.8459 109.142 83.9886C109.317 84.0529 109.463 84.1787 109.552 84.3425C109.641 84.5063 109.667 84.6969 109.626 84.8786H109.62ZM118.05 85.0413C117.82 85.9205 117.875 86.8228 117.823 87.7159C117.809 87.9822 117.741 88.243 117.625 88.4832C116.914 89.9504 116.017 91.3205 114.958 92.5604C114.928 92.5972 114.843 92.5895 114.696 92.6202C114.628 91.8929 114.575 91.1732 114.751 90.4719C115.04 89.3118 115.38 88.1701 115.933 87.096C116.339 86.3057 116.531 85.408 117.142 84.7175C117.295 84.5395 117.41 84.3124 117.697 84.4275C117.984 84.5426 118.13 84.7344 118.05 85.0413ZM132.014 84.409C132.003 84.4403 131.988 84.4706 131.971 84.4996C130.837 86.5604 129.785 88.6704 128.388 90.5747C128.358 90.6161 128.275 90.6208 128.129 90.6745C128.063 89.9903 128.165 89.3004 128.425 88.6642C128.872 87.4551 129.335 86.2505 129.838 85.0643C130.064 84.4706 130.469 83.9621 130.997 83.6096C131.269 83.4392 131.549 83.3594 131.82 83.5958C131.936 83.6922 132.019 83.824 132.054 83.9713C132.089 84.1186 132.075 84.2734 132.014 84.4121V84.409Z" fill="url(#paint0_linear_28_269)"/>
<path d="M161.667 74.8123C161.067 69.7223 159.811 64.8164 157.739 60.127C153.731 51.0503 147.343 43.7875 140.163 37.1369C139.593 36.6106 139.352 36.6766 139.089 37.3978C138.35 39.4065 138.071 41.4765 138.594 43.5727C139.561 47.4412 140.474 51.3235 141.541 55.1674C142.431 58.37 143.382 61.5587 143.935 64.8441C144.303 67.0568 144.877 69.1913 145.88 71.2062C146.103 71.6892 146.297 72.1853 146.46 72.6916C148.242 77.737 148.822 82.982 148.997 88.2837C149.092 91.1471 148.843 93.9998 148.481 96.8432C147.843 101.79 146.827 106.681 145.44 111.472C144.868 113.454 144.088 115.363 143.368 117.294C143.126 117.765 142.879 118.231 142.641 118.705C137.651 128.68 130.802 137.14 121.959 143.959C118.126 146.891 114.025 149.455 109.71 151.618C109.403 151.771 108.943 151.811 108.911 152.27C108.856 152.999 108.368 153.175 107.769 153.29C106.554 153.522 105.368 153.827 104.448 154.753C104.094 155.109 103.692 155.09 103.27 154.826C102.211 154.168 101.122 154.26 100.023 154.727C99.5948 154.908 99.1805 155.122 98.7723 155.34C97.5923 155.98 96.3662 156.451 95.0112 156.568C93.5212 156.7 92.0374 156.892 90.5489 157.044C90.249 157.052 89.9559 157.135 89.6957 157.285C89.374 157.521 89.0046 157.683 88.6133 157.762C88.2221 157.84 87.8185 157.832 87.4308 157.737C86.9934 157.636 86.5101 157.711 86.0497 157.766C85.129 157.875 84.2083 158.03 83.2876 158.159C79.416 158.693 75.5951 158.564 71.8555 157.312C71.4448 157.178 71.018 157.099 70.5864 157.077C68.7957 156.949 67.0131 156.724 65.2463 156.405C61.8965 155.851 58.6955 154.671 55.3656 154.031C55.0005 153.972 54.6567 153.82 54.3669 153.59C54.077 153.36 53.8509 153.06 53.7099 152.718C53.6449 152.549 53.5366 152.401 53.396 152.287C53.2554 152.174 53.0874 152.1 52.9089 152.072C48.9698 151.134 45.468 149.231 42.0307 147.189C41.4939 146.855 40.9885 146.473 40.5207 146.047C36.6691 142.671 36.2655 138.099 37.5868 134.104C38.4875 131.385 40.3105 129.301 42.9575 128.018C44.0317 127.497 45.0951 126.944 46.1156 126.317C48.5992 124.833 50.4869 122.529 51.4526 119.803C51.56 119.508 51.7457 119.221 51.5692 118.839C51.0383 119.098 51.1089 119.933 50.4383 119.976C50.0455 119.516 50.2649 119.055 50.4107 118.632C50.7319 117.687 50.9721 116.717 51.1288 115.732C51.6582 114.186 51.3667 112.79 50.3784 111.51C49.4224 110.273 48.4787 109.027 47.5289 107.786C47.024 107.126 46.7509 106.431 46.9519 105.562C47.0482 105.121 47.0507 104.665 46.9593 104.222C46.8678 103.78 46.6844 103.362 46.4209 102.995C45.8701 102.183 45.2593 101.41 44.6332 100.653C43.3804 99.1529 42.4412 97.4164 41.8711 95.5466C41.5291 94.4011 41.1029 93.2824 40.5959 92.1998C40.2906 91.5716 40.0291 90.923 39.8133 90.2586C39.5463 89.4131 39.5724 88.5523 39.6338 87.6868C39.6798 87.0408 39.6875 86.2612 39.2072 85.9098C38.6655 85.5139 38.6686 85.0996 38.6348 84.5856C38.6078 84.2886 38.5492 83.9954 38.4599 83.7109C37.7855 81.3414 37.4345 78.8916 37.4164 76.4281C37.375 73.666 37.3995 70.9039 37.8062 68.1678C38.0901 66.2574 38.8021 64.4482 39.2717 62.5807C39.4307 61.9136 39.68 61.2713 40.0128 60.6717C40.5177 59.7771 40.9826 58.8595 41.4599 57.9495C41.5464 57.8067 41.6106 57.6514 41.6501 57.4892C41.7284 57.0058 41.4276 56.7894 40.9658 57.0073C40.8123 57.0794 40.6588 57.2221 40.5315 57.0748C40.483 57.0079 40.4495 56.9313 40.4334 56.8503C40.4172 56.7692 40.4188 56.6857 40.4379 56.6053C40.8123 55.4759 40.9949 54.2851 41.512 53.2002C41.9248 52.3347 42.201 51.457 42.1074 50.4534C42.0368 49.6862 42.6798 49.2258 43.223 48.7992C43.307 48.741 43.4099 48.7166 43.5112 48.7308C43.6124 48.745 43.7046 48.7968 43.7693 48.8759C43.9043 49.0187 43.866 49.1828 43.7877 49.3363C42.8992 51.0902 42.3714 52.9854 41.6394 54.8007C41.555 55.0078 41.2496 55.3224 41.5964 55.4912C41.9033 55.6447 42.1427 55.35 42.3115 55.0892C42.3816 54.9766 42.4393 54.8567 42.4834 54.7316C43.5575 51.8437 45.1412 49.2289 46.714 46.5987C46.9718 46.1691 47.222 45.7363 47.3156 45.2407C47.4168 44.7113 47.7115 44.3691 48.1641 44.0791C49.1248 43.4653 49.427 42.52 49.3918 41.3983C48.9713 41.3752 48.7089 41.5977 48.4542 41.7942C47.848 42.2545 47.2649 42.7563 46.6619 43.2259C46.091 43.6724 45.5984 44.234 44.888 44.4857C44.8189 44.5609 44.7468 44.6299 44.667 44.5072C44.667 44.4964 44.7407 44.4259 44.7805 44.3829C45.1795 43.2121 45.7181 42.1717 47.067 41.8555C47.3463 41.7911 47.4705 41.5394 47.6378 41.3307C48.4265 40.341 48.7856 39.1609 49.137 37.9824C49.3964 37.1154 49.9043 36.4924 50.7529 36.2208C52.1339 35.7773 53.3232 34.9932 54.5093 34.1845C55.8321 33.2899 57.1518 32.3938 58.5605 31.6342C59.8341 30.9467 60.0259 30.2531 59.3845 28.9426C59.0776 28.315 59.1006 27.9989 59.5993 27.5109C60.1587 26.9387 60.8063 26.46 61.5175 26.093C61.7983 25.958 62.142 25.6204 62.3829 25.9964C62.6238 26.3723 61.9701 26.3324 61.9318 26.6363C61.9318 26.6685 61.9318 26.7022 61.921 26.8235C63.1931 26.6547 64.407 26.4107 65.4903 25.691C66.3742 25.1038 67.2678 24.5314 68.1711 23.9739C68.7174 23.6348 69.388 23.2634 69.9496 23.535C70.6892 23.8926 71.2186 23.5933 71.8202 23.3509C72.2514 23.1775 72.6749 22.9841 73.1107 22.8215C73.436 22.7002 73.8074 22.4194 74.0836 22.8614C74.3245 23.2465 73.9393 23.4537 73.7521 23.7069C73.7322 23.733 73.7092 23.7575 73.6877 23.7836C73.4468 24.0782 73.482 24.3284 73.812 24.5248C74.1419 24.7212 74.3813 24.6644 74.5178 24.29C74.7879 23.5412 75.3542 23.4598 76.0524 23.5488C77.736 23.7685 79.4342 23.8573 81.1316 23.8143C82.3357 23.8032 83.5214 23.5172 84.5981 22.978C85.1965 22.6459 85.8636 22.4569 86.5473 22.4258C87.231 22.3946 87.9125 22.5222 88.5387 22.7984C90.5427 23.6348 92.5683 23.4844 94.6031 22.9381C94.7332 22.9096 94.8587 22.8631 94.976 22.8C95.3151 22.5974 95.3657 22.2199 95.0665 21.9744C94.8791 21.8407 94.672 21.7372 94.4527 21.6675C93.4509 21.3093 92.4214 21.0342 91.3745 20.845C91.155 20.8005 90.8911 20.845 90.7944 20.5381C91.2901 20.2466 91.8532 20.1668 92.398 20.0302C93.1054 19.8522 93.822 19.7018 94.5294 19.5192C94.7872 19.4517 95.0435 19.3289 95.0849 19.0143C95.1309 18.666 94.91 18.4604 94.643 18.2993C94.5233 18.2318 94.3967 18.1773 94.2655 18.1366C91.5525 17.1898 88.7765 16.5039 85.8932 16.4625C83.3967 16.4082 80.9234 15.9709 78.5597 15.1658C78.3296 15.0906 78.0135 15.1228 77.8708 14.7561C79.0308 13.774 80.6221 13.6911 82.0277 12.9254C79.37 12.2916 76.8426 12.3776 74.3337 12.7274C68.8095 13.4947 63.6305 15.3361 58.717 17.9448C53.6531 20.6409 49.1831 24.1365 44.9954 28.0143C42.6276 30.2071 40.6773 32.716 39.5878 35.8111C39.3821 36.3942 38.974 36.8346 38.5136 37.2336C36.7934 38.7589 35.4998 40.5972 34.5147 42.6612C33.7813 44.19 32.9419 45.6657 32.0027 47.0775C29.5935 50.7035 28.0774 54.7101 27.0539 58.9239C25.8539 63.8344 25.3321 68.8154 25.3337 73.8516C25.3337 76.0445 25.4119 78.2403 25.6038 80.4316C25.8352 83.2816 26.2117 86.118 26.7316 88.9298C27.7198 94.0888 29.6687 98.9041 31.949 103.6C33.33 106.431 34.817 109.208 36.2456 112.013C36.8594 113.227 37.553 114.409 37.9029 115.741C37.9105 116.138 37.9781 116.526 37.9029 116.932C37.6819 118.17 36.8548 118.899 35.8359 119.468C35.0533 119.907 34.2323 120.28 33.4605 120.736C29.9786 122.79 27.2718 125.528 25.8431 129.403C25.3045 130.865 24.6293 132.277 24.0999 133.742C23.1439 136.395 22.6007 139.134 23.0856 141.95C24.2089 148.476 27.4314 153.663 33.0431 157.295C39.1516 161.284 45.8037 164.371 52.7938 166.461C62.1251 169.231 71.6683 170.32 81.3832 169.92C86.6031 169.698 91.7863 168.94 96.8511 167.658C99.8526 166.903 102.736 165.764 105.713 164.934C108.331 164.207 110.792 163.174 113.031 161.607C114.443 160.603 115.966 159.766 117.57 159.112C118.227 158.848 118.77 158.403 119.298 157.941C119.774 157.525 120.24 157.097 120.73 156.698C121.357 156.186 122.06 155.778 122.878 155.719C123.357 155.683 123.684 155.457 124.01 155.17C125.313 154.028 126.651 152.927 128.055 151.915C132.684 148.585 136.862 144.755 140.777 140.62C145.15 136.001 149.361 131.239 153.461 126.38C153.958 125.796 154.301 125.098 154.458 124.348C154.785 122.853 155.072 121.359 155.732 119.936C156.056 119.239 156.58 118.601 156.676 117.797C156.959 117.456 157.059 117.03 157.225 116.634C160.16 109.603 161.417 102.239 161.617 94.655C161.712 90.9952 161.856 87.3369 161.845 83.6771C161.838 80.7263 162.017 77.7677 161.667 74.8123ZM63.5154 24.8486C64.7768 23.9816 66.1839 23.4107 67.565 22.7647C67.8427 22.6343 68.0959 22.6112 68.2616 22.8767C68.4596 23.1944 68.1972 23.3938 67.9639 23.4905C67.0617 23.8649 66.4003 24.5862 65.61 25.0818C64.7722 25.6066 63.7195 26.0025 62.4704 25.8337C62.808 25.3074 63.1701 25.0864 63.5154 24.8486ZM56.8587 29.4199C56.2449 30.4465 55.1124 31.2168 53.9968 31.3365C54.8147 30.425 55.3932 29.2986 56.8587 29.4199Z" fill="url(#paint1_linear_28_269)"/>
<path d="M86.7187 11.397C87.813 11.2986 88.9151 11.328 90.0026 11.4845C91.422 11.6579 92.8322 11.8942 94.2654 11.9449C94.6537 11.9587 95.0434 11.9924 95.4286 11.8282C95.3928 11.7551 95.3468 11.6875 95.292 11.6272C94.7914 11.2345 94.1948 10.9829 93.5642 10.8983C91.5217 10.6283 89.4716 10.418 87.4415 10.0451C86.6343 9.89169 86.3121 10.128 86.1755 10.7848C86.0681 11.2973 86.1801 11.4569 86.7187 11.397Z" fill="url(#paint2_linear_28_269)"/>
<path d="M27.0968 47.722C27.3669 47.8003 27.502 47.5686 27.6324 47.3691C28.2216 46.4837 28.5362 45.4602 29.0426 44.5318C29.0733 44.475 29.1147 44.3875 29.0932 44.3461C28.7863 43.7722 29.2022 43.3517 29.3894 42.8822C29.5597 42.4556 29.7577 42.0351 29.6119 41.5303C28.6574 42.8177 27.7874 44.1389 27.2457 45.632C27.0826 46.0997 26.9478 46.5768 26.8421 47.0607C26.7823 47.3185 26.7654 47.6269 27.0968 47.722Z" fill="url(#paint3_linear_28_269)"/>
<path d="M19.7327 67.2579C20.4141 65.0159 21.5742 62.8369 20.6534 60.1439C19.4489 62.553 19.6591 64.9147 19.7327 67.2579Z" fill="url(#paint4_linear_28_269)"/>
<path d="M43.6773 27.7734C43.2522 27.5217 42.9683 27.5386 42.7351 27.6414C42.0308 27.9483 41.2742 28.0787 40.5576 28.3304C39.261 28.7831 38.9847 29.7682 39.8364 31.0158C40.8354 29.6347 42.353 28.8782 43.6773 27.7734Z" fill="url(#paint5_linear_28_269)"/>
<path d="M131.434 38.1359C131.484 38.3231 131.606 38.5963 131.527 38.6991C130.913 39.4203 131.563 39.8132 131.915 40.2674C132.039 40.4285 132.194 40.6955 132.47 40.5436C132.676 40.4316 132.624 40.2014 132.579 40.008C132.535 39.8147 132.492 39.5784 132.71 39.4878C132.994 39.3728 133.104 39.6536 133.244 39.8224C133.322 39.9291 133.391 40.042 133.451 40.16C133.572 40.361 133.687 40.5927 133.98 40.4669C134.322 40.3134 134.359 40.0172 134.235 39.7134C134.068 39.3489 133.782 39.0523 133.423 38.8725C133.227 38.7605 132.914 38.7329 132.869 38.495C132.693 37.5482 131.85 37.5083 131.181 37.1462C131.172 37.539 131.352 37.8244 131.434 38.1359Z" fill="url(#paint6_linear_28_269)"/>
<path d="M36.3438 35.2341C35.9832 35.6745 35.7069 36.0812 35.3601 36.4142C34.8599 36.8945 34.3182 37.3349 33.7765 37.7676C33.1811 38.2387 32.5857 38.7205 32.1177 39.3297C31.6497 39.9389 31.5576 40.2228 31.5638 40.987C33.2701 39.1257 35.5243 37.8413 36.3438 35.2341Z" fill="url(#paint7_linear_28_269)"/>
<path d="M18.2581 63.7929C17.7808 65.5515 18.0448 67.3008 18.4115 69.0547C18.6141 67.0108 18.8151 64.9653 19.033 62.7632C18.6487 62.9905 18.37 63.3607 18.2581 63.7929Z" fill="url(#paint8_linear_28_269)"/>
<path d="M19.6883 82.4204C19.8494 80.8015 19.8418 79.4112 19.3461 78.0348C19.0914 79.4419 18.3379 80.8982 19.6883 82.4204Z" fill="url(#paint9_linear_28_269)"/>
<path d="M128.485 31.2107C129.359 32.6911 130.372 34.0846 131.511 35.3723C131.032 33.5938 129.677 32.4475 128.485 31.2107Z" fill="url(#paint10_linear_28_269)"/>
<path d="M122.276 29.6132C122.523 29.469 122.685 29.3616 122.858 29.2787C123.102 29.1636 123.351 29.0593 123.318 28.7247C123.286 28.3902 123.051 28.2214 122.752 28.1109C122.476 28.0158 122.167 28.0327 121.908 27.8624C121.745 27.7549 121.601 27.8301 121.475 27.9575C121.415 28.0142 121.379 28.0923 121.375 28.1752C121.371 28.258 121.4 28.3391 121.455 28.401C121.707 28.7907 121.969 29.1652 122.276 29.6132Z" fill="url(#paint11_linear_28_269)"/>
<path d="M24.9179 52.838C25.4842 52.838 25.3783 52.4038 25.3998 52.0892C25.3998 51.3971 25.2678 51.1685 24.878 51.1976C24.2842 51.2437 24.3947 51.7362 24.3624 52.0953C24.3164 52.5971 24.5174 52.838 24.9179 52.838Z" fill="url(#paint12_linear_28_269)"/>
<path d="M51.6169 118.331C51.5693 118.461 51.4036 118.638 51.6031 118.716C51.8026 118.794 51.8133 118.563 51.8609 118.437C51.8706 118.407 51.8777 118.377 51.8824 118.346C51.9533 118.263 52.0012 118.162 52.0211 118.055C52.041 117.947 52.0323 117.836 51.9959 117.733C51.8893 117.794 51.7992 117.881 51.7332 117.985C51.6672 118.09 51.6273 118.208 51.6169 118.331Z" fill="url(#paint13_linear_28_269)"/>
<defs>
<linearGradient id="paint0_linear_28_269" x1="67.3271" y1="90.0867" x2="139.452" y2="90.0867" gradientUnits="userSpaceOnUse">
<stop stop-color="#F15E24"/>
<stop offset="1" stop-color="#F58B20"/>
</linearGradient>
<linearGradient id="paint1_linear_28_269" x1="92.3949" y1="170.007" x2="92.3949" y2="12.4543" gradientUnits="userSpaceOnUse">
<stop stop-color="#F05225"/>
<stop offset="1" stop-color="#F58B20"/>
</linearGradient>
<linearGradient id="paint2_linear_28_269" x1="90.7836" y1="11.9587" x2="90.7836" y2="10.0037" gradientUnits="userSpaceOnUse">
<stop stop-color="#E57046"/>
<stop offset="1" stop-color="#EFA83F"/>
</linearGradient>
<linearGradient id="paint3_linear_28_269" x1="28.2355" y1="47.7374" x2="28.2355" y2="41.5303" gradientUnits="userSpaceOnUse">
<stop stop-color="#E57046"/>
<stop offset="1" stop-color="#EFA83F"/>
</linearGradient>
<linearGradient id="paint4_linear_28_269" x1="20.3327" y1="67.2579" x2="20.3327" y2="60.1439" gradientUnits="userSpaceOnUse">
<stop stop-color="#E57046"/>
<stop offset="1" stop-color="#EFA83F"/>
</linearGradient>
<linearGradient id="paint5_linear_28_269" x1="41.5136" y1="31.0158" x2="41.5136" y2="27.5708" gradientUnits="userSpaceOnUse">
<stop stop-color="#E57046"/>
<stop offset="1" stop-color="#EFA83F"/>
</linearGradient>
<linearGradient id="paint6_linear_28_269" x1="132.739" y1="40.5896" x2="132.739" y2="37.1416" gradientUnits="userSpaceOnUse">
<stop stop-color="#E57046"/>
<stop offset="1" stop-color="#EFA83F"/>
</linearGradient>
<linearGradient id="paint7_linear_28_269" x1="33.9545" y1="40.987" x2="33.9545" y2="35.2341" gradientUnits="userSpaceOnUse">
<stop stop-color="#E57046"/>
<stop offset="1" stop-color="#EFA83F"/>
</linearGradient>
<linearGradient id="paint8_linear_28_269" x1="18.5189" y1="69.0547" x2="18.5189" y2="62.7602" gradientUnits="userSpaceOnUse">
<stop stop-color="#E57046"/>
<stop offset="1" stop-color="#EFA83F"/>
</linearGradient>
<linearGradient id="paint9_linear_28_269" x1="19.3476" y1="82.4204" x2="19.3476" y2="78.0348" gradientUnits="userSpaceOnUse">
<stop stop-color="#E57046"/>
<stop offset="1" stop-color="#EFA83F"/>
</linearGradient>
<linearGradient id="paint10_linear_28_269" x1="130" y1="35.3723" x2="130" y2="31.2107" gradientUnits="userSpaceOnUse">
<stop stop-color="#E57046"/>
<stop offset="1" stop-color="#EFA83F"/>
</linearGradient>
<linearGradient id="paint11_linear_28_269" x1="122.349" y1="29.6132" x2="122.349" y2="27.8194" gradientUnits="userSpaceOnUse">
<stop stop-color="#E57046"/>
<stop offset="1" stop-color="#EFA83F"/>
</linearGradient>
<linearGradient id="paint12_linear_28_269" x1="24.878" y1="52.838" x2="24.878" y2="51.1946" gradientUnits="userSpaceOnUse">
<stop stop-color="#E57046"/>
<stop offset="1" stop-color="#EFA83F"/>
</linearGradient>
<linearGradient id="paint13_linear_28_269" x1="51.7719" y1="118.732" x2="51.7719" y2="117.731" gradientUnits="userSpaceOnUse">
<stop stop-color="#E57046"/>
<stop offset="1" stop-color="#EFA83F"/>
</linearGradient>
</defs>
</svg>
