<svg width="97" height="96" viewBox="0 0 97 96" fill="none" xmlns="http://www.w3.org/2000/svg">
<path d="M49.4663 84C47.2848 84.0039 45.124 83.5765 43.108 82.7426C41.092 81.9088 39.2607 80.6847 37.7192 79.1409L14.488 55.9099C13.8289 55.1786 13.4757 54.2221 13.5013 53.2379C13.5269 52.2537 13.9292 51.3168 14.6253 50.6207C15.3215 49.9244 16.2583 49.5221 17.2424 49.4965C18.2266 49.471 19.183 49.8242 19.9143 50.4833L43.1436 73.721C44.8208 75.3977 47.0953 76.3393 49.4666 76.3389C51.8381 76.3384 54.1121 75.3959 55.7886 73.7186C57.4652 72.0413 58.4068 69.7667 58.4063 67.3951C58.4058 65.0235 57.4634 62.7493 55.7862 61.0726L35.147 40.431C32.0313 37.315 30.281 33.0891 30.281 28.6825C30.281 24.276 32.0313 20.05 35.147 16.9341L35.2149 16.8671C36.7575 15.3241 38.589 14.1 40.6046 13.2649C42.6204 12.4298 44.7808 12 46.9625 12C49.1443 12 51.3048 12.4298 53.3205 13.2649C55.3361 14.1 57.1675 15.3241 58.7102 16.8671L81.832 39.9905C82.2193 40.3396 82.5316 40.7638 82.7497 41.2374C82.9678 41.711 83.0872 42.2239 83.1008 42.7452C83.1143 43.2664 83.0216 43.7849 82.8284 44.2692C82.6352 44.7533 82.3453 45.1932 81.9767 45.5619C81.6081 45.9306 81.1683 46.2204 80.684 46.4136C80.1998 46.6068 79.6813 46.6995 79.1601 46.686C78.6389 46.6725 78.126 46.553 77.6525 46.3349C77.1789 46.1167 76.7548 45.8045 76.4058 45.4173L53.2839 22.2937C51.6062 20.6198 49.333 19.6796 46.963 19.6796C44.5931 19.6796 42.3199 20.6198 40.6422 22.2937L40.5743 22.3617C39.7441 23.1918 39.0856 24.1773 38.6363 25.2619C38.187 26.3465 37.9559 27.509 37.9559 28.683C37.9559 29.857 38.187 31.0195 38.6363 32.1041C39.0856 33.1887 39.7441 34.1742 40.5743 35.0043L61.2174 55.645C63.5421 57.9677 65.1252 60.9281 65.7667 64.1513C66.4082 67.3744 66.079 70.7154 64.8208 73.7514C63.5626 76.7872 61.432 79.3816 58.6988 81.206C55.9655 83.0303 52.7525 84.0028 49.4663 84Z" fill="#01ADB5"/>
<path d="M69.7647 55.4854C69.2607 55.486 68.7616 55.387 68.2959 55.1941C67.8303 55.0012 67.4074 54.7182 67.0515 54.3612L51.948 39.2555C51.289 38.5242 50.9357 37.5677 50.9613 36.5835C50.9868 35.5993 51.3892 34.6624 52.0853 33.9663C52.7815 33.27 53.7182 32.8677 54.7024 32.8421C55.6865 32.8166 56.6429 33.1698 57.3743 33.8289L72.4749 48.9345C73.0116 49.4713 73.377 50.1551 73.525 50.8996C73.6729 51.644 73.5969 52.4156 73.3064 53.1168C73.0159 53.818 72.5239 54.4173 71.8928 54.8389C71.2616 55.2605 70.5198 55.4855 69.7608 55.4854H69.7647Z" fill="#01ADB5"/>
<path d="M40.9526 62.8787C40.4486 62.8793 39.9495 62.7804 39.4838 62.5875C39.0182 62.3945 38.5953 62.1115 38.2394 61.7545L23.1349 46.646C22.7476 46.2969 22.4354 45.8727 22.2173 45.3991C21.9991 44.9256 21.8797 44.4126 21.8662 43.8914C21.8526 43.3702 21.9453 42.8517 22.1385 42.3675C22.3318 41.8832 22.6215 41.4434 22.9902 41.0747C23.3589 40.706 23.7987 40.4162 24.2829 40.2229C24.7671 40.0297 25.2856 39.937 25.8067 39.9505C26.3279 39.9641 26.8409 40.0836 27.3144 40.3017C27.7879 40.5198 28.2122 40.832 28.5612 41.2194L43.6618 56.3269C44.1963 56.8645 44.56 57.5482 44.7068 58.2921C44.8537 59.0359 44.7772 59.8066 44.487 60.507C44.1969 61.2075 43.706 61.8063 43.0762 62.2284C42.4464 62.6505 41.7058 62.8767 40.9477 62.8787H40.9526Z" fill="#01ADB5"/>
</svg>
